<svg width="60" height="60" viewBox="0 0 60 60" fill="none" xmlns="http://www.w3.org/2000/svg">
<path fill-rule="evenodd" clip-rule="evenodd" d="M30 60C46.5685 60 60 46.5685 60 30C60 13.4315 46.5685 0 30 0C13.4315 0 0 13.4315 0 30C0 46.5685 13.4315 60 30 60Z" fill="#F2F6F7"/>
<path d="M31.8328 32.2213C31.7236 32.0485 31.5396 31.9371 31.3359 31.9205C30.9796 31.8915 30.6417 31.9058 30.3187 31.9258C30.2409 31.9306 30.1644 31.9358 30.0884 31.9408C29.8394 31.9575 29.5948 31.9738 29.3218 31.9789C28.6337 31.9916 27.7833 31.9304 26.5679 31.5693C23.9526 30.7924 21.5443 30.35 18.5625 30.35C18.1227 30.35 17.5989 30.361 16.9924 30.3826C16.3672 30.405 15.7618 30.4609 15.1766 30.5509C14.5791 30.6428 14.0398 30.7834 13.5659 30.9795C13.0502 31.1929 12.5908 31.554 12.4517 32.1385C12.4487 32.151 12.4461 32.1635 12.4439 32.1761C12.3676 32.6081 12.4771 33.016 12.7448 33.3567L12.8956 33.5487C12.8947 33.5519 12.8936 33.5555 12.8922 33.5597C12.8898 33.5606 12.8877 33.5615 12.8859 33.5622C12.8654 33.5707 12.8441 33.5802 12.8258 33.5885C12.7877 33.606 12.7372 33.63 12.6769 33.6593C12.555 33.7183 12.3785 33.8057 12.1488 33.9206C11.5703 34.2098 11.1103 34.6809 11.0812 35.3734C11.0627 35.7212 11.1239 36.1054 11.3837 36.4138C11.4325 36.4718 11.4654 36.5123 11.4855 36.5381C11.4939 36.5532 11.503 36.568 11.5127 36.5824C11.5123 36.5851 11.5118 36.5883 11.5111 36.5921C11.5034 36.6321 11.493 36.6439 11.4748 36.6585L11.4747 36.6584L11.4659 36.6657L11.0255 37.0309C10.5941 37.3887 10.35 37.8681 10.35 38.4336C10.35 38.4439 10.3502 38.4542 10.3507 38.4645C10.3751 38.9754 10.6198 39.3965 11.0276 39.691C11.1577 39.785 11.2616 39.8587 11.3366 39.91C11.3731 39.935 11.4092 39.959 11.4407 39.9786C11.4501 39.9844 11.4631 39.9923 11.4783 40.0009C11.4908 40.0115 11.4993 40.0212 11.5056 40.0298C11.509 40.0345 11.5126 40.04 11.5162 40.0467C11.5156 40.0504 11.5148 40.0546 11.5138 40.0591C11.5096 40.0787 11.5026 40.0958 11.4904 40.1141C11.477 40.1342 11.4647 40.155 11.4536 40.1765L11.2818 40.5095C11.1155 40.8317 11.0375 41.1824 11.0375 41.5488L11.0377 41.5655C11.0468 41.9187 11.1212 42.2737 11.3203 42.574C11.53 42.8903 11.8382 43.0854 12.1927 43.1695C12.5961 43.2653 12.9502 43.3375 13.1699 43.3375H16.9189C17.5871 43.3375 18.1634 43.3339 18.6474 43.3267L19.3606 43.316C19.3679 43.3162 19.3732 43.3166 19.3768 43.3171C19.3857 43.3323 19.3952 43.347 19.4053 43.3614C19.4033 43.3735 19.3997 43.3877 19.3933 43.4046L19.3932 43.4045L19.389 43.4165C19.206 43.935 19.0518 44.5008 18.9251 45.1122C18.7985 45.7227 18.7087 46.3241 18.6562 46.9163C18.6036 47.5107 18.5951 48.0661 18.6341 48.5804C18.6737 49.1031 18.7844 49.5842 19.0176 49.9659L19.0175 49.966L19.0239 49.9759C19.1261 50.1366 19.2218 50.2838 19.3107 50.4172C19.4681 50.6533 19.7013 50.7675 19.8904 50.8242C20.0815 50.8816 20.2908 50.9 20.4961 50.9C20.6722 50.9 20.8117 50.835 20.8727 50.8045C20.9505 50.7657 21.024 50.7177 21.0887 50.6715C21.2382 50.5647 21.3452 50.4211 21.4195 50.305C21.4999 50.1794 21.5755 50.0321 21.6474 49.8722L21.6547 49.8555C22.2152 48.5103 22.8319 47.3169 23.5029 46.2722C24.1775 45.2221 24.8725 44.3436 25.5856 43.6305C26.3048 42.9113 27.0144 42.3594 27.7128 41.9641C27.8128 41.9075 28.0438 41.8276 28.4133 41.7435C28.7632 41.6639 29.1786 41.5929 29.6029 41.5315C30.3495 41.4233 31.0908 41.3492 31.5013 41.3081C31.5573 41.3025 31.6071 41.2975 31.65 41.2931C31.8763 41.27 32.074 41.1303 32.1714 40.9247C32.3244 40.6018 32.4866 40.122 32.6601 39.5145C32.856 38.829 32.943 37.9366 32.943 36.8652C32.943 35.757 32.8123 34.7723 32.5348 33.9239L31.917 34.126L32.5348 33.9239C32.285 33.1603 32.0528 32.5696 31.8328 32.2213Z" fill="white" stroke="#7F7F7F" stroke-width="1.3" stroke-linecap="round" stroke-linejoin="round"/>
<path d="M26.4602 27.0287C26.5693 27.2015 26.7534 27.3129 26.957 27.3295C27.3133 27.3585 27.6513 27.3442 27.9743 27.3242C28.0521 27.3194 28.1285 27.3142 28.2046 27.3092C28.4535 27.2925 28.6982 27.2762 28.9711 27.2711C29.6593 27.2584 30.5096 27.3196 31.7251 27.6807C34.3403 28.4576 36.7487 28.9 39.7305 28.9C40.1703 28.9 40.694 28.889 41.3005 28.8674C41.9258 28.845 42.5312 28.7891 43.1164 28.6991C43.7139 28.6072 44.2532 28.4666 44.727 28.2705C45.2427 28.0571 45.7021 27.696 45.8413 27.1115C45.8443 27.099 45.8469 27.0865 45.8491 27.0739C45.9253 26.6419 45.8159 26.234 45.5482 25.8933L45.3974 25.7013C45.3982 25.6981 45.3993 25.6945 45.4008 25.6903C45.4031 25.6894 45.4052 25.6885 45.407 25.6878C45.4276 25.6793 45.4489 25.6698 45.4671 25.6615C45.5053 25.644 45.5558 25.62 45.6161 25.5907C45.7379 25.5317 45.9144 25.4443 46.1442 25.3294C46.7227 25.0402 47.1826 24.5691 47.2118 23.8766C47.2303 23.5288 47.169 23.1446 46.9093 22.8362C46.8604 22.7782 46.8275 22.7377 46.8075 22.7119C46.799 22.6968 46.79 22.682 46.7803 22.6676C46.7806 22.6649 46.7811 22.6617 46.7819 22.6579C46.7895 22.6179 46.8 22.6061 46.8182 22.5915L46.8182 22.5916L46.827 22.5843L47.2675 22.2191C47.6989 21.8613 47.943 21.3819 47.943 20.8164C47.943 20.8061 47.9427 20.7958 47.9422 20.7855C47.9179 20.2746 47.6731 19.8535 47.2653 19.559C47.1352 19.465 47.0314 19.3913 46.9564 19.34C46.9199 19.315 46.8838 19.291 46.8523 19.2714C46.8429 19.2656 46.8299 19.2577 46.8147 19.2491C46.8021 19.2385 46.7936 19.2288 46.7874 19.2202C46.784 19.2155 46.7804 19.21 46.7767 19.2033C46.7774 19.1996 46.7781 19.1954 46.7791 19.1909C46.7833 19.1713 46.7904 19.1542 46.8026 19.1359C46.816 19.1158 46.8282 19.095 46.8393 19.0735L47.0112 18.7405C47.1775 18.4183 47.2555 18.0676 47.2555 17.7012L47.2553 17.6845C47.2462 17.3313 47.1718 16.9763 46.9726 16.676C46.7629 16.3597 46.4548 16.1646 46.1003 16.0805C45.6969 15.9847 45.3428 15.9125 45.123 15.9125H41.374C40.7059 15.9125 40.1296 15.9161 39.6456 15.9233L38.9323 15.934C38.925 15.9338 38.9197 15.9334 38.9162 15.9329C38.9073 15.9177 38.8978 15.903 38.8877 15.8886C38.8896 15.8765 38.8933 15.8623 38.8996 15.8454L38.8997 15.8455L38.904 15.8335C39.087 15.315 39.2412 14.7492 39.3679 14.1378C39.4945 13.5273 39.5843 12.9259 39.6367 12.3337C39.6894 11.7393 39.6978 11.1839 39.6589 10.6696C39.6193 10.1469 39.5086 9.66581 39.2753 9.2841L39.2754 9.28405L39.2691 9.27408C39.1668 9.11339 39.0712 8.96623 38.9822 8.83281C38.8248 8.59668 38.5916 8.48246 38.4026 8.42575C38.2114 8.3684 38.0022 8.35 37.7969 8.35C37.6208 8.35 37.4812 8.41498 37.4202 8.44548C37.3425 8.48435 37.269 8.53226 37.2042 8.5785C37.0547 8.68527 36.9477 8.82892 36.8734 8.94502C36.793 9.07064 36.7175 9.2179 36.6455 9.37779L36.6383 9.39453C36.0778 10.7397 35.4611 11.9331 34.79 12.9778C34.1155 14.0279 33.4205 14.9064 32.7074 15.6195C31.9882 16.3387 31.2786 16.8906 30.5802 17.2859C30.4802 17.3425 30.2492 17.4224 29.8797 17.5065C29.5298 17.5861 29.1144 17.6571 28.69 17.7185C27.9435 17.8267 27.2021 17.9008 26.7917 17.9419C26.7357 17.9475 26.6859 17.9525 26.643 17.9569C26.4167 17.98 26.2189 18.1197 26.1216 18.3253C25.9686 18.6482 25.8064 19.128 25.6328 19.7355C25.437 20.421 25.35 21.3134 25.35 22.3848C25.35 23.493 25.4807 24.4777 25.7582 25.3261L26.376 25.124L25.7582 25.3261C26.0079 26.0897 26.2402 26.6804 26.4602 27.0287Z" fill="white" stroke="black" stroke-width="1.3" stroke-linecap="round" stroke-linejoin="round"/>
</svg>
